# xmcd CD database file generated by Grip 3.3.1
# 
# Track frame offsets:
#       182
#       15337
#       29547
#       47360
#       64097
#       70310
#       88342
#       104147
#       124200
#       139775
#       156020
# 
# Disc length: 2259 seconds
# 
# Revision: 2
# Processed by: cddbd v1.5.1PL2 Copyright (c) Steve Scherf et al.
# Submitted via: Grip 3.3.1
# 
DISCID=9708d10b
DTITLE=MC Solaar - MC Solaar
DYEAR=1998
DGENRE=Hip-Hop
TTITLE0=Onzième Commandement
TTITLE1=Galaktika
TTITLE2=La 5ème Saison
TTITLE3=Perfect
TTITLE4=Songes
TTITLE5=Vie N'Est Qu'un Moment
TTITLE6=Vigipirap 
TTITLE7=Message de l'Ange
TTITLE8=Nouvelle Genèse
TTITLE9=Je Me Souviens
TTITLE10=L'argent Ne Fait Pas le Bonheur
EXTD=
EXTT0=
EXTT1=
EXTT2=
EXTT3=
EXTT4=
EXTT5=
EXTT6=
EXTT7=
EXTT8=
EXTT9=
EXTT10=
PLAYORDER=
